<svg width="391" height="403" viewBox="0 0 391 403" fill="none" xmlns="http://www.w3.org/2000/svg">
<path d="M376.698 262.285C371.568 260.923 366.12 261.559 360.853 262.24C346.87 264.01 332.886 265.781 318.903 267.597C325.713 241.991 312.728 215.658 310.231 189.28C310.004 186.783 309.913 184.059 311.366 182.016C312.728 180.109 315.089 179.292 317.314 178.52C335.928 172.119 353.68 163.129 369.934 151.961C376.562 147.375 383.69 140.611 382.056 132.711C380.376 124.856 371.25 121.542 363.487 119.59C345.417 115.004 327.393 110.464 309.323 105.879C307.053 105.289 304.692 104.698 302.967 103.109C301.378 101.656 300.561 99.568 299.789 97.5703C291.98 77.5939 284.126 57.6175 276.317 37.5956C272.866 28.7424 269.279 19.6622 263.196 12.3527C257.112 5.04309 247.986 -0.586636 238.452 0.0489777C229.19 0.684592 221.064 6.90453 211.847 7.81255C202.994 8.67517 194.504 4.58908 185.832 2.50063C159.908 -3.76471 133.44 8.31196 109.468 20.0254C102.658 23.3397 95.666 26.8356 90.7173 32.5561C84.8152 39.4117 82.5905 48.5827 80.5475 57.4359C76.7338 73.7348 72.9655 90.0792 69.1518 106.378C68.4254 109.511 67.5628 112.87 65.1111 115.004C63.0681 116.775 60.2532 117.365 57.62 117.955C41.1848 121.724 25.6122 128.942 12.1281 139.067C7.40643 142.608 2.73013 146.785 0.868688 152.369C-1.67377 159.951 1.6405 168.578 7.22483 174.343C12.8092 180.109 20.2549 183.605 27.6099 186.829C30.5156 188.1 33.4666 189.371 35.6913 191.596C38.3699 194.229 39.6866 197.952 40.9124 201.493C44.7261 212.48 48.5398 223.513 52.3988 234.5C63.2951 265.827 62.8411 279.356 81.5917 306.733C81.5917 306.733 83.9525 331.249 105.109 351.09C115.143 360.488 148.604 379.511 148.604 379.511C166.401 391.587 186.423 401.394 207.897 402.847C210.077 402.983 212.256 403.028 214.435 402.983C225.331 402.711 236.318 400.032 245.898 394.811C250.62 392.223 254.978 388.999 258.746 385.14C260.563 383.279 262.061 380.918 264.104 379.329C266.147 377.785 267.872 376.423 269.597 374.471L276.362 367.343C295.612 356.265 309.55 336.334 313.273 314.406C313.727 311.636 314.226 308.503 316.497 306.778C318.222 305.507 320.537 305.416 322.671 305.371C334.158 305.189 345.644 305.008 357.13 304.826C366.755 304.69 377.288 304.236 384.598 297.97C396.039 288.3 391.181 266.144 376.698 262.285ZM242.402 17.3922C243.537 17.5284 244.99 18.1186 245.671 18.9812C258.247 34.8262 270.278 51.0797 280.176 68.7407C280.221 68.7861 280.176 68.8769 280.13 69.1493C269.506 64.6546 258.792 61.0225 247.669 58.6617C246.988 58.5255 246.17 57.4813 245.989 56.7094C244.218 49.8993 242.538 43.0891 240.858 36.2336C239.315 29.9228 237.862 23.5667 236.364 17.3014C238.361 17.3014 240.404 17.1198 242.402 17.3922ZM116.641 110.146C129.989 107.332 143.292 104.335 156.73 102.02C166.401 100.385 176.207 99.7042 185.969 98.6146C201.178 96.9801 216.433 96.7531 231.687 97.2979C241.494 97.6612 251.301 98.6146 261.107 99.5226C274.955 100.794 288.575 103.472 302.014 106.878C315.77 110.373 329.254 114.596 342.466 119.771C342.784 119.908 343.102 120.089 344.055 120.634C342.557 120.634 341.74 120.634 340.922 120.634C315.997 120.589 291.117 120.679 266.192 120.498C255.341 120.452 244.491 120.18 233.685 119.59C222.335 119 211.03 117.819 199.725 117.002C189.782 116.276 179.794 115.549 169.806 115.141C151.418 114.414 133.031 113.869 114.644 113.325C111.511 113.234 108.424 113.325 105.109 113.325C108.969 112.235 112.782 110.964 116.641 110.146ZM78.8222 190.733C74.8269 185.467 70.5592 180.518 65.1111 176.75C61.252 174.071 57.0297 175.251 55.3045 179.655C52.4896 186.965 52.081 194.456 54.3057 201.993C55.1229 204.717 55.9401 207.395 56.8027 210.119C56.9389 210.119 57.0751 210.074 57.2113 210.074C58.4826 204.036 59.7538 197.997 61.1158 191.641C64.0215 194.456 66.7002 197.089 69.3334 199.768C69.6058 200.04 69.515 200.858 69.3334 201.357C68.1076 204.853 66.7456 208.303 65.5197 211.799C63.2951 218.11 66.0191 225.828 71.6489 229.369C73.2379 230.368 74.8269 231.458 76.2344 232.366C75.5988 241.31 74.9177 250.072 74.2821 259.107C70.3776 259.062 67.9714 256.746 65.9737 253.931C63.8853 250.935 62.6595 247.575 62.9319 243.898C63.2497 239.721 62.1147 236.089 60.2532 232.366C55.0321 221.742 50.5828 210.755 48.4944 199.042C47.1777 191.596 46.9507 184.059 49.584 176.704C51.0368 172.664 53.6701 169.667 57.5746 167.715C60.2532 166.398 62.8865 166.217 65.7013 167.215C71.4673 169.259 76.0982 172.936 80.0027 177.476C81.2285 178.884 81.4101 181.244 81.9095 183.197C83.4531 188.963 84.9514 194.729 86.041 200.721C83.6347 197.362 81.3193 194.002 78.8222 190.733ZM272.821 342.282C270.505 350.817 261.652 358.036 252.844 360.442C249.802 361.259 246.624 361.713 243.356 362.394C243.038 358.944 242.72 355.721 242.357 351.771C236.228 361.895 226.92 362.803 217.341 362.167C204.674 361.35 193.142 357.037 183.018 349.41C178.977 346.322 175.163 342.827 171.667 339.104C169.443 336.743 167.309 336.153 164.222 336.607C150.238 338.604 138.071 334.427 127.674 325.029C119.729 317.856 116.006 308.549 114.689 298.152C114.235 294.747 114.099 291.342 113.736 287.891C113.69 287.347 113.236 286.666 112.782 286.348C100.842 277.722 93.85 265.872 90.8989 251.661C88.084 238.041 88.7651 224.421 92.5787 211.027C93.0327 209.393 93.6684 208.167 95.2574 207.441C97.4367 206.442 98.8441 204.808 98.7987 202.31C98.7079 195.5 102.068 189.78 104.519 183.787C108.923 173.163 113.418 162.539 117.958 151.961C118.367 151.007 119.411 150.009 120.41 149.6C130.534 145.423 141.067 142.517 151.872 140.928C161.77 139.43 171.758 139.158 181.746 140.338C195.185 141.927 208.578 143.879 222.017 145.241C228.509 145.877 235.138 145.605 241.676 145.468C254.57 145.196 267.463 144.651 280.312 146.376C286.032 147.148 291.481 149.101 296.611 151.915C297.973 152.642 298.563 153.641 298.836 155.048C300.788 163.947 301.56 172.891 301.741 181.971C301.877 189.19 302.104 196.499 303.103 203.673C303.739 208.258 305.873 212.617 307.28 217.066C310.458 227.099 311.82 237.451 311.23 247.938C310.867 254.295 309.732 260.605 308.96 266.962C308.778 268.369 307.87 268.914 306.554 269.095C299.925 270.003 293.297 271.002 286.713 271.956C284.307 272.319 281.946 272.727 279.449 273.091C276.317 261.014 271.413 249.709 266.056 238.586C263.741 233.728 260.835 229.324 257.021 225.51C256.022 224.512 255.341 222.968 255.069 221.561C254.252 217.52 253.752 213.388 253.162 209.575C264.921 217.429 272.594 216.612 279.767 208.712C278.678 208.712 277.906 208.621 277.134 208.712C268.825 210.119 261.561 207.305 254.66 203.128C253.162 202.22 251.709 201.175 250.166 200.449C248.395 199.632 247.714 198.361 247.714 197.271C251.573 195.046 255.16 193.049 258.837 190.915C259.11 191.233 259.609 191.687 259.927 192.231C262.696 197.089 267.509 196.499 272.004 196.681C272.548 196.681 273.229 196.136 273.638 195.682C274.818 194.411 275.908 193.049 277.134 191.641C278.133 192.595 279.132 193.457 279.994 194.411C281.492 196.045 283.218 196.726 285.442 196.772C287.712 196.772 289.937 197.226 292.116 197.453C290.663 193.775 283.535 187.192 278.723 185.648C272.866 183.787 266.873 182.243 260.608 180.473C265.784 179.156 270.869 178.157 275.726 176.477C279.359 175.206 281.81 176.25 284.443 178.611C288.575 182.334 293.024 185.694 297.61 189.417C297.61 184.059 297.973 178.929 297.428 173.935C297.201 171.665 295.43 169.349 293.796 167.533C290.709 164.174 287.258 161.086 283.853 158.045C283.263 157.545 281.992 157.318 281.22 157.545C269.552 160.859 257.929 164.264 246.307 167.533C245.716 167.715 244.672 167.352 244.218 166.852C242.175 164.537 240.268 162.131 238.361 159.77C236.772 166.444 235.093 173.254 233.549 180.109C233.367 180.836 233.776 181.744 234.048 182.47C240.132 198.86 246.261 215.25 252.254 231.685C253.026 233.773 254.524 236.134 252.844 238.359C250.62 241.31 247.986 243.898 244.037 244.397C236.954 245.351 229.69 245.805 223.197 242.445C216.115 238.768 209.668 239.903 203.039 243.217C200.633 244.397 199.407 243.852 199.135 241.219C198.772 237.769 198.817 234.273 200.088 230.868C201.36 227.553 204.038 226.736 206.989 226.101C208.533 225.783 210.077 225.465 212.256 225.011C208.488 222.968 205.173 221.152 201.814 219.472C201.45 219.29 200.542 219.744 200.088 220.108C194.867 224.512 190.009 229.279 186.513 235.181C176.207 252.66 164.04 269.005 164.676 290.025C164.676 290.161 164.857 290.252 165.22 290.706C172.439 275.497 179.885 260.605 191.054 247.53C192.189 255.066 197.773 256.61 203.72 257.7C205.9 258.108 208.034 258.472 210.213 258.789C214.344 259.38 217.704 261.604 220.973 263.965C223.334 265.645 225.74 267.234 227.965 269.095C229.871 270.684 231.869 271.138 234.275 271.138C236.591 271.138 237.635 270.14 237.862 267.96C238.044 266.371 238.044 264.737 238.452 263.193C238.679 262.331 239.451 261.332 240.223 261.014C242.947 259.924 245.762 258.971 248.622 258.245C252.572 257.246 255.341 254.839 257.521 251.571C257.884 251.026 258.247 250.436 258.61 249.845C262.742 253.568 270.097 265.872 272.866 273.772C269.915 274.362 267.009 275.315 264.058 275.452C260.335 275.633 256.567 275.088 252.799 274.952C251.709 274.907 250.529 274.952 249.575 275.406C245.716 277.222 241.993 279.265 238.134 281.081C237.136 281.535 235.819 281.762 234.729 281.581C230.598 280.945 226.557 279.719 222.426 279.492C219.838 279.356 217.068 280.4 214.571 281.308C209.078 283.306 203.72 285.576 198.272 287.664C196.411 288.391 194.413 288.754 192.506 289.299C192.143 289.39 191.78 289.48 191.462 289.707C187.058 293.113 182.427 296.2 178.477 300.059C176.389 302.102 175.39 305.371 174.346 308.231C173.166 311.545 172.53 315.041 171.622 318.446C171.804 318.582 171.985 318.719 172.121 318.855C175.254 314.769 178.341 310.683 181.565 306.687C182.427 305.598 183.517 304.554 184.743 303.918C192.279 300.15 199.68 295.927 208.124 294.702C214.344 293.794 220.7 293.794 227.011 293.476C230.825 293.249 234.639 293.294 238.452 293.022C241.176 292.84 243.628 293.385 246.034 294.747C250.892 297.471 255.523 300.422 259.791 304.372C254.57 306.506 249.394 307.641 244.037 307.641C230.916 307.732 217.749 307.686 204.628 307.686C203.902 307.686 203.13 307.686 202.131 308.186C203.312 309.23 204.492 310.319 205.718 311.364C210.304 315.359 214.934 319.354 219.52 323.395C220.7 324.394 221.745 324.757 223.424 324.303C229.826 322.623 236.364 321.579 243.038 321.942C245.898 322.078 248.849 322.351 251.619 322.941C253.253 323.304 254.206 322.805 255.251 321.851C256.431 320.762 257.657 319.718 259.337 318.265C260.517 317.266 265.965 323.622 266.692 324.394C271.413 329.388 274.728 335.335 272.821 342.282ZM302.74 319.763C302.468 320.58 302.195 321.443 301.923 322.26C301.65 323.077 301.333 323.894 301.015 324.712C300.379 326.346 299.698 327.89 298.926 329.433C298.155 330.977 297.292 332.475 296.339 333.928C295.884 334.654 295.385 335.381 294.84 336.062C294.341 336.743 293.751 337.469 293.206 338.15C292.343 339.149 291.435 340.148 290.436 341.101C289.755 341.737 289.074 342.373 288.348 342.963C287.985 343.281 287.622 343.553 287.258 343.871C288.757 337.242 288.348 331.113 286.713 325.211C286.396 324.121 286.032 323.032 285.669 321.942C285.397 321.216 285.124 320.489 284.807 319.763C283.172 315.813 280.993 311.954 278.45 308.14C287.849 307.686 296.747 307.278 305.918 306.824C305.01 311.228 304.011 315.586 302.74 319.763ZM343.056 285.621C318.676 287.755 293.932 289.889 268.78 292.068C269.325 289.208 269.597 286.938 270.233 284.804C270.46 284.032 271.55 283.17 272.367 283.034C278.36 282.08 284.398 281.308 290.391 280.446C297.61 279.447 304.828 278.403 312.047 277.449C319.357 276.496 326.666 275.633 334.021 274.816C338.107 274.362 342.148 273.953 346.325 273.499C345.281 277.404 344.282 281.217 343.056 285.621ZM360.899 283.034C360.808 283.397 360.172 283.805 359.718 283.851C357.811 284.078 355.859 284.214 353.635 284.396C352.908 284.441 352.091 284.532 351.274 284.577C351.365 284.078 351.501 283.578 351.592 283.079C352.227 280.128 352.772 277.449 353.408 274.816C353.498 274.362 353.635 273.953 353.725 273.499C353.771 273.318 353.907 273.091 354.089 272.864C354.361 272.546 354.77 272.228 355.133 272.183C356.449 271.91 357.811 271.683 359.173 271.502C360.536 271.275 361.898 271.093 363.26 270.911C362.442 275.088 361.716 279.084 360.899 283.034Z" fill="#292929"/>
<path d="M215.842 185.785C215.57 183.878 214.98 181.29 215.888 180.019C219.157 175.342 219.792 170.212 219.838 164.855C219.838 162.267 219.656 159.724 219.565 157.137C218.022 157.727 217.114 158.272 216.478 159.089C214.889 161.041 213.345 163.039 211.983 165.127C210.985 166.716 209.804 166.852 208.17 166.489C193.732 163.266 179.249 160.315 164.903 156.864C160.362 155.774 156.776 156.274 153.552 159.543C152.826 160.269 151.827 160.814 151.01 161.45C147.469 164.174 143.927 166.989 140.341 169.667C136.164 172.754 134.257 177.295 132.168 181.789C131.215 183.923 130.171 186.012 129.308 187.873C135.71 190.642 141.839 193.276 147.877 196C149.739 196.862 151.373 196.953 153.325 196.136C157.865 194.184 162.542 192.458 167.036 190.642C167.672 191.55 168.035 191.959 168.217 192.458C169.306 195.183 171.168 196.454 174.21 195.909C175.481 195.682 176.843 195.682 178.114 195.909C181.292 196.499 183.335 194.91 185.151 192.685C185.515 192.231 185.878 191.777 186.332 191.233C188.602 193.049 190.781 194.819 193.051 196.635C184.834 206.124 175.072 211.345 162.224 208.803C165.901 213.933 173.12 216.521 178.977 214.705C184.062 213.116 188.102 209.802 191.78 206.17C195.957 202.084 199.816 197.68 203.902 193.367C208.624 197.453 213.482 201.629 218.703 206.124C218.794 205.216 218.93 204.853 218.839 204.49C217.795 198.224 216.751 192.004 215.842 185.785ZM153.961 187.419C150.011 188.781 146.651 188.282 142.474 187.101C143.519 186.193 144.291 185.376 145.153 184.831C150.147 181.744 155.051 178.566 160.226 175.842C161.724 175.07 164.04 175.433 165.901 175.706C170.85 176.477 175.753 177.476 180.657 178.43C181.292 178.566 181.883 178.884 182.337 179.065C172.893 181.835 163.314 184.195 153.961 187.419Z" fill="#292929"/>
</svg>
